<svg width="94" height="83" viewBox="0 0 94 83" fill="none" xmlns="http://www.w3.org/2000/svg">
<path d="M44.6713 49.2597C45.488 48.6587 46.2514 47.987 46.9616 47.28C46.0739 46.9795 45.1507 46.7674 44.2097 46.626C44.3339 47.5098 44.476 48.3935 44.6713 49.2597Z" fill="#F9B233"/>
<path d="M46.9794 47.28C46.8374 46.3608 46.7663 45.424 46.7486 44.4695C45.8786 44.2221 44.9731 44.0276 44.0499 43.9039C44.0499 44.823 44.1209 45.7245 44.2274 46.626C45.1684 46.7674 46.0917 46.9795 46.9794 47.28Z" fill="#009FE3"/>
<path d="M48.0269 51.1333C48.6306 50.603 49.2165 50.0551 49.7846 49.4894C48.9679 49.0122 48.0979 48.6233 47.1747 48.3052C47.3877 49.2773 47.6718 50.2141 48.0269 51.1333Z" fill="#95C11F"/>
<path d="M47.1747 48.3052C48.0802 48.6233 48.9679 49.0122 49.7846 49.4894C50.406 48.8531 50.9919 48.1991 51.5601 47.5098C50.5126 46.8911 49.4118 46.3608 48.2577 45.9366C47.8494 46.4139 47.4232 46.8558 46.9794 47.2976C47.0326 47.6158 47.1037 47.9693 47.1747 48.3052Z" fill="#95C11F"/>
<path d="M47.1569 48.1991C47.1569 48.2345 47.1747 48.2698 47.1747 48.3052C47.1747 48.2698 47.1569 48.2345 47.1569 48.1991Z" fill="#009FE3"/>
<path d="M46.9794 47.28C47.0326 47.5804 47.0859 47.8986 47.1569 48.1991C47.0859 47.8986 47.0326 47.5804 46.9794 47.28Z" fill="#F9B233"/>
<path d="M42.0258 46.4669C42.7715 46.4669 43.4994 46.5199 44.2274 46.626C44.1209 45.7422 44.0676 44.823 44.0498 43.9039C43.1799 43.7802 42.2744 43.7095 41.3689 43.7095C34.2848 43.7095 28.0706 47.4744 24.644 53.0953C26.0111 53.4665 27.4137 53.7139 28.8696 53.82C31.5683 49.4187 36.4508 46.4669 42.0258 46.4669Z" fill="#009FE3"/>
<path d="M46.7485 44.4695C46.7663 45.424 46.8373 46.3608 46.9794 47.28C53.0692 49.3303 57.4368 55.0573 57.4368 61.8094C57.4368 70.2761 50.548 77.152 42.0258 77.152C33.5213 77.152 26.6148 70.2761 26.6148 61.8094C26.6148 60.5368 26.7745 59.2995 27.0764 58.1152C25.5672 58.0091 24.1114 57.797 22.6732 57.4789C22.1228 59.2818 21.821 61.2084 21.821 63.1881C21.821 73.935 30.574 82.6491 41.3689 82.6491C52.1637 82.6491 60.9168 73.935 60.9168 63.1881C60.9168 54.2972 54.9334 46.8027 46.7485 44.4695Z" fill="#009FE3"/>
<path d="M28.8696 53.8377C27.4137 53.7316 26.0111 53.4841 24.644 53.113C23.8095 54.474 23.1526 55.9411 22.6732 57.4789C24.0936 57.797 25.5672 58.0091 27.0764 58.1152C27.467 56.5774 28.0707 55.1457 28.8696 53.8377Z" fill="#95C11F"/>
<path d="M46.7486 44.2928C46.7486 38.336 49.5361 33.0156 53.9037 29.4805C53.8149 27.8013 53.5486 26.1928 53.1047 24.6197C47.5653 29.1446 44.0499 36.0028 44.0499 43.6741C44.0499 43.7448 44.0499 43.8155 44.0499 43.9039C44.9731 44.0276 45.8786 44.2221 46.7486 44.4695C46.7486 44.4165 46.7486 44.3635 46.7486 44.2928Z" fill="#F9B233"/>
<path d="M7.493 30.7708C7.493 18.0089 17.8972 7.65095 30.7161 7.65095C41.4044 7.65095 50.406 14.845 53.1047 24.6197C54.3298 23.6121 55.6614 22.7284 57.0818 21.9683C53.8149 9.61296 42.5052 0.492279 29.0649 0.492279C13.068 0.492279 0.0893097 13.4132 0.0893097 29.3391C0.0893097 43.0908 9.74785 54.58 22.6732 57.4789C23.1526 55.9234 23.8095 54.474 24.644 53.113C14.7547 50.4439 7.493 41.4646 7.493 30.7708Z" fill="#95C11F"/>
<path d="M29.0649 58.1682C35.3146 58.1682 41.0848 56.2062 45.8253 52.8655C45.3637 51.6989 44.9731 50.497 44.689 49.2597C40.8008 52.1761 35.9715 53.9084 30.7161 53.9084C30.0947 53.9084 29.4733 53.8907 28.8696 53.8377C28.0707 55.1457 27.467 56.5774 27.0764 58.1152C27.7333 58.1505 28.3903 58.1682 29.0649 58.1682Z" fill="#95C11F"/>
<path d="M53.9037 29.4805C55.1288 28.4907 56.4781 27.6245 57.934 26.9529C57.792 25.256 57.5079 23.5945 57.0818 21.986C55.6614 22.746 54.3476 23.6298 53.1047 24.6373C53.5308 26.1928 53.8149 27.8013 53.9037 29.4805Z" fill="#95C11F"/>
<path d="M58.0406 29.3214C58.0406 28.526 58.005 27.7306 57.934 26.9352C56.4781 27.6245 55.1288 28.473 53.9037 29.4628C53.9215 29.887 53.9392 30.3289 53.9392 30.7531C53.9392 36.5508 52.3768 41.1465 48.8436 45.1942C49.9977 45.6184 51.0097 46.2194 52.0395 46.8557C56.1053 41.9242 58.0406 36.2149 58.0406 29.3214Z" fill="#95C11F"/>
<path d="M57.4724 61.4206C53.158 59.2464 49.7668 55.5699 48.0269 51.1333C47.3167 51.7519 46.5888 52.3176 45.8076 52.8655C48.0091 58.3096 52.1105 62.7993 57.2771 65.5213C57.4369 64.6375 57.5256 63.7361 57.5256 62.7993C57.5434 62.3397 57.5256 61.8801 57.4724 61.4206Z" fill="#F9B233"/>
<path d="M68.7999 19.0341C64.5565 19.0341 60.5617 20.0947 57.0818 21.9683C57.5079 23.5768 57.792 25.2383 57.934 26.9352C60.5795 25.6802 63.5445 24.9732 66.6693 24.9732C77.6772 24.9732 86.59 33.6166 86.59 44.2751C86.59 54.9336 77.6594 63.577 66.6693 63.577C64.6808 63.577 62.781 63.2942 60.9701 62.7639C61.0056 63.2235 61.0233 63.6831 61.0233 64.1426C61.0233 65.1148 60.9523 66.0516 60.8103 66.9884C63.3137 67.8368 66.0124 68.3141 68.7999 68.3141C82.4709 68.3141 93.5498 57.2844 93.5498 43.6741C93.5676 30.0815 82.4709 19.0341 68.7999 19.0341Z" fill="#F9B233"/>
<path d="M60.97 62.7993C59.745 62.4457 58.5909 61.9862 57.4724 61.4205C57.5079 61.8801 57.5434 62.322 57.5434 62.7993C57.5434 63.7184 57.4546 64.6375 57.2948 65.5213C58.4134 66.1046 59.5852 66.6172 60.8103 67.0238C60.9523 66.1046 61.0233 65.1501 61.0233 64.178C61.0233 63.7007 61.0056 63.2588 60.97 62.7993Z" fill="#F9B233"/>
<path d="M46.1982 48.0047C45.7188 48.4466 45.2039 48.8531 44.6713 49.2596C44.9553 50.4969 45.3459 51.6989 45.8076 52.8655C46.571 52.3175 47.3167 51.7519 48.0269 51.1333C47.6718 50.2141 47.3877 49.2773 47.1747 48.3052C46.8551 48.1991 46.5355 48.093 46.1982 48.0047Z" fill="#F9B233"/>
<path d="M47.1747 48.3052C47.1747 48.2698 47.1569 48.2345 47.1569 48.1991C47.0859 47.8986 47.0327 47.5981 46.9794 47.28C46.7308 47.5274 46.4645 47.7749 46.1982 48.0047C46.5355 48.093 46.8551 48.1991 47.1747 48.3052Z" fill="#F9B233"/>
</svg>
