<svg xmlns="http://www.w3.org/2000/svg" width="1em" height="1em" viewBox="0 0 24 24"><path fill="white" d="m12 22l-.25-3h-.25q-3.55 0-6.025-2.475Q3 14.05 3 10.5q0-3.55 2.475-6.025Q7.95 2 11.5 2q1.775 0 3.312.662q1.538.663 2.701 1.825q1.162 1.163 1.824 2.7Q20 8.725 20 10.5q0 3.8-2.275 6.812Q15.45 20.325 12 22Zm-.525-6.025q.425 0 .725-.3t.3-.725q0-.425-.3-.725t-.725-.3q-.425 0-.725.3t-.3.725q0 .425.3.725t.725.3ZM11.5 12.8q.275 0 .5-.2q.225-.2.3-.55q.05-.325.275-.588q.225-.262.775-.812q.45-.45.75-.975q.3-.525.3-1.125q0-1.275-.862-1.913Q12.675 6 11.5 6q-.875 0-1.512.4q-.638.4-1.038 1q-.175.275-.063.575q.113.3.463.425q.25.1.5 0t.45-.375q.2-.275.488-.45q.287-.175.712-.175q.675 0 1.013.375q.337.375.337.825q0 .425-.25.762q-.25.338-.6.688q-.7.6-.938.975q-.237.375-.287 1.025q-.025.3.188.525q.212.225.537.225Z"/></svg>
